<?xml version="1.0" encoding="utf-8"?>
<!-- Generator: Adobe Illustrator 15.1.0, SVG Export Plug-In . SVG Version: 6.00 Build 0)  -->
<!DOCTYPE svg PUBLIC "-//W3C//DTD SVG 1.1//EN" "http://www.w3.org/Graphics/SVG/1.1/DTD/svg11.dtd">
<svg version="1.1" id="Слой_1" xmlns="http://www.w3.org/2000/svg" xmlns:xlink="http://www.w3.org/1999/xlink" x="0px" y="0px"
	 width="2607.869px" height="6363.779px" viewBox="0 0 2607.869 6363.779" enable-background="new 0 0 2607.869 6363.779"
	 xml:space="preserve">
<path fill="#7EB95E" d="M1924.134,6255.919h-404.478c-237.294,0-242.687-242.687-242.687-269.651V4206.566
	c0-16.18,0-453.015-172.577-679.522c-118.646-156.397-258.866-280.438-334.368-345.154
	c75.502-64.716,215.722-188.756,334.368-345.154c172.577-226.507,172.577-663.343,172.577-679.522v-1779.7
	c0-26.966,5.393-269.652,242.687-269.652h404.478c32.358,0,53.93-21.572,53.93-53.93c0-32.358-21.571-53.931-53.93-53.931h-404.478
	C1276.97,0,1169.11,194.149,1169.11,377.513v1779.7c0,5.394,0,415.264-151.006,614.807
	c-156.397,204.936-366.726,366.727-366.726,366.727l-5.394,5.393c0,0-5.393,0-5.393,5.393c0,0,0,0,0,5.394
	c0,5.393-5.394,5.393-5.394,10.786c0,5.393,0,5.393-5.393,10.786c0,5.393,0,5.393,0,10.786c0,5.393,0,5.393,0,10.786
	c0,5.393,0,5.393,5.393,10.786c0,5.393,0,5.393,5.394,10.785c0,0,0,0,0,5.394c0,0,5.393,0,5.393,5.393l5.394,5.394
	c0,0,210.328,161.791,366.726,366.727c151.006,188.756,151.006,598.626,151.006,604.02v1779.701
	c0,183.363,107.86,377.512,350.547,377.512h404.478c32.358,0,53.93-21.572,53.93-53.93
	C1978.064,6277.491,1956.492,6255.919,1924.134,6255.919z"/>
</svg>
