<?xml version="1.0" encoding="utf-8"?>
<!-- Generator: Adobe Illustrator 15.1.0, SVG Export Plug-In . SVG Version: 6.00 Build 0)  -->
<!DOCTYPE svg PUBLIC "-//W3C//DTD SVG 1.1//EN" "http://www.w3.org/Graphics/SVG/1.1/DTD/svg11.dtd">
<svg version="1.1" id="Слой_1" xmlns="http://www.w3.org/2000/svg" xmlns:xlink="http://www.w3.org/1999/xlink" x="0px" y="0px"
	 width="1870.869px" height="3089.76px" viewBox="0 0 1870.869 3089.76" enable-background="new 0 0 1870.869 3089.76"
	 xml:space="preserve">
<g>
	<g>
		<path fill="none" stroke="#DDDBDB" stroke-width="6" stroke-linejoin="round" stroke-miterlimit="10" d="M268.631,1695.968
			c234.268,52.636,613.076-171.542,629.438-181.358l0,0l0,0l0.273-0.271v-0.271l0,0l0,0
			c-9.818-16.362-233.45-395.991-180.814-630.531c-12.546-12.818-25.907-24-40.361-33.271c0,0-196.634-137.996-354.268,74.452
			c0,0-71.726,85.361-16.362,261.813c-178.631,46.636-212.724,152.725-212.724,152.725
			c-95.998,246.813,125.183,340.356,125.183,340.356C234.54,1686.422,251.176,1691.877,268.631,1695.968z M921.526,1579.243
			L921.526,1579.243L921.526,1579.243l-0.545-0.273l0,0l0,0c-16.363,9.818-395.174,233.995-629.438,181.36
			c-12.545,12.545-24,25.908-33.272,40.362c0,0-137.724,197.178,74.453,355.084c0,0,85.089,71.726,261.268,16.362
			c46.637,178.903,152.451,212.996,152.451,212.996c246.27,96.271,339.813-125.452,339.813-125.452
			c7.09-15.545,12.545-32.181,16.361-49.636C1154.976,1975.507,931.344,1595.879,921.526,1579.243
			C921.526,1579.516,921.526,1579.243,921.526,1579.243z M967.889,1494.152L967.889,1494.152L967.889,1494.152l0.545,0.271l0,0l0,0
			c16.363-9.816,395.174-233.995,629.441-181.357c12.545-12.547,24-25.908,33.271-40.363c0,0,137.726-197.178-74.453-355.083
			c0,0-85.089-71.729-261.267-16.363c-46.637-178.905-152.452-212.995-152.452-212.995
			c-246.267-96.271-339.81,125.451-339.81,125.451c-7.093,15.545-12.548,32.182-16.362,49.636
			C734.439,1097.889,958.071,1477.518,967.889,1494.152C967.889,1493.881,967.889,1494.152,967.889,1494.152z M1670.965,1392.975
			c-15.545-7.092-32.185-12.546-49.637-16.361c-234.27-52.637-613.078,171.542-629.44,181.357l0,0l0,0v0.272v0.271l0,0l0,0
			c9.817,16.363,233.45,395.992,180.813,630.532c12.547,12.818,25.908,24,40.362,33.271c0,0,196.632,137.998,354.267-74.453
			c0,0,71.728-85.358,16.361-261.813c178.635-46.636,212.725-152.725,212.725-152.725
			C1892.142,1486.79,1670.965,1392.975,1670.965,1392.975z"/>
	</g>
</g>
</svg>
